<svg width="16" height="16" viewBox="0 0 16 16" fill="none" xmlns="http://www.w3.org/2000/svg">
<path d="M10.293 4.29297C10.6836 3.9025 11.3166 3.90246 11.7071 4.29297C12.0975 4.68349 12.0975 5.31655 11.7071 5.70703L4.20709 13.207C3.81661 13.5975 3.18356 13.5974 2.79303 13.207C2.40251 12.8165 2.40251 12.1835 2.79303 11.793L10.293 4.29297ZM13.1046 7.5C13.3252 7.50024 13.5049 7.67968 13.5049 7.90039V8.49512H14.0997C14.3204 8.49536 14.5001 8.67474 14.5001 8.89551C14.5001 9.11627 14.3204 9.29566 14.0997 9.2959H13.5049V9.90039C13.5049 10.1212 13.3253 10.3005 13.1046 10.3008C12.8838 10.3006 12.7042 10.1212 12.7042 9.90039V9.2959H12.0997C11.8789 9.29573 11.6993 9.11632 11.6993 8.89551C11.6993 8.6747 11.8789 8.49528 12.0997 8.49512H12.7042V7.90039C12.7042 7.67967 12.8839 7.50023 13.1046 7.5ZM11.212 4.78809C11.0948 4.67094 10.9053 4.67097 10.7881 4.78809L8.91315 6.66309C8.796 6.78024 8.79599 6.96976 8.91315 7.08691C9.03031 7.20395 9.21986 7.20403 9.33698 7.08691L11.212 5.21191C11.329 5.09479 11.329 4.90524 11.212 4.78809ZM5.50494 2.90527C5.72562 2.90551 5.90527 3.08495 5.90533 3.30566V3.90039H6.50006C6.72077 3.90063 6.90045 4.08001 6.90045 4.30078C6.90045 4.52155 6.72077 4.70093 6.50006 4.70117H5.90533V5.30566C5.90533 5.52643 5.72566 5.70582 5.50494 5.70605C5.28423 5.70582 5.10455 5.52644 5.10455 5.30566V4.70117H4.50006C4.27929 4.70101 4.09967 4.52159 4.09967 4.30078C4.09967 4.07997 4.27929 3.90056 4.50006 3.90039H5.10455V3.30566C5.10462 3.08495 5.28426 2.9055 5.50494 2.90527ZM13.1046 1.5C13.3252 1.50024 13.5049 1.67968 13.5049 1.90039V2.49512H14.0997C14.3204 2.49536 14.5001 2.67474 14.5001 2.89551C14.5001 3.11627 14.3204 3.29566 14.0997 3.2959H13.5049V3.90039C13.5049 4.12116 13.3253 4.30054 13.1046 4.30078C12.8838 4.30055 12.7042 4.12116 12.7042 3.90039V3.2959H12.0997C11.8789 3.29573 11.6993 3.11632 11.6993 2.89551C11.6993 2.6747 11.8789 2.49528 12.0997 2.49512H12.7042V1.90039C12.7042 1.67967 12.8839 1.50023 13.1046 1.5Z" fill="#9747FF"/>
</svg>
