<svg width="16" height="16" viewBox="0 0 16 16" fill="none" xmlns="http://www.w3.org/2000/svg">
<path d="M12.9998 12.2499C13.414 12.25 13.7498 12.5858 13.7498 12.9999C13.7498 13.4141 13.414 13.7499 12.9998 13.7499H6.99982C6.58573 13.7498 6.24982 13.4141 6.24982 12.9999C6.24986 12.5858 6.58575 12.2501 6.99982 12.2499H12.9998ZM6.09357 4.57708C6.32709 4.07683 6.92233 3.86047 7.42267 4.09368C7.92308 4.3272 8.13949 4.92234 7.90607 5.42278L4.40607 12.9228C4.17249 13.4232 3.57739 13.6397 3.07697 13.4062C2.57681 13.1725 2.36019 12.5774 2.59357 12.0771L6.09357 4.57708ZM12.9998 9.24993C13.414 9.24998 13.7498 9.58578 13.7498 9.99993C13.7498 10.4141 13.414 10.7499 12.9998 10.7499H8.99982C8.58573 10.7498 8.24982 10.4141 8.24982 9.99993C8.24986 9.58584 8.58575 9.25007 8.99982 9.24993H12.9998ZM12.9998 6.24993C13.414 6.24998 13.7498 6.58578 13.7498 6.99993C13.7498 7.41411 13.414 7.74988 12.9998 7.74993H10.9998C10.5857 7.74978 10.2498 7.41405 10.2498 6.99993C10.2499 6.58584 10.5858 6.25007 10.9998 6.24993H12.9998ZM7.12677 4.72844C6.97682 4.65872 6.79844 4.72319 6.72833 4.87297L5.85333 6.74797C5.78343 6.8979 5.84818 7.07617 5.99786 7.14641C6.1479 7.21643 6.32613 7.1518 6.3963 7.00188L7.2713 5.12688C7.34125 4.97683 7.27672 4.79856 7.12677 4.72844ZM7.5672 1.59075C7.77313 1.5119 8.00443 1.61554 8.0838 1.82122L8.29767 2.37688L8.85236 2.16399C9.05842 2.08489 9.29057 2.18759 9.36993 2.39348C9.4491 2.59972 9.34571 2.83189 9.13947 2.91106L8.58478 3.12395L8.8006 3.6884C8.87972 3.89453 8.77712 4.12669 8.57111 4.20598C8.36495 4.28492 8.13265 4.18165 8.05353 3.97551L7.83673 3.41106L7.27228 3.62786C7.06612 3.70679 6.83383 3.60352 6.7547 3.39739C6.67598 3.19148 6.77951 2.96012 6.98517 2.88079L7.54962 2.66399L7.33673 2.10833C7.25788 1.90229 7.3613 1.66999 7.5672 1.59075Z" fill="#9747FF"/>
</svg>
