<svg width="12" height="12" viewBox="0 0 12 12" fill="none" xmlns="http://www.w3.org/2000/svg">
<circle cx="6" cy="6" r="5" fill="#E5E6EB"/>
<path d="M7.14657 4.1466C7.34183 3.95134 7.65834 3.95134 7.8536 4.1466C8.0487 4.34187 8.04881 4.65842 7.8536 4.85363L6.70712 6.00011L7.8536 7.1466C8.0487 7.34187 8.04881 7.65842 7.8536 7.85363C7.65839 8.04884 7.34184 8.04873 7.14657 7.85363L6.00008 6.70715L4.8536 7.85363C4.65839 8.04884 4.34184 8.04873 4.14657 7.85363C3.95131 7.65837 3.95131 7.34186 4.14657 7.1466L5.29305 6.00011L4.14657 4.85363C3.95131 4.65837 3.95131 4.34186 4.14657 4.1466C4.34183 3.95134 4.65834 3.95134 4.8536 4.1466L6.00008 5.29308L7.14657 4.1466Z" fill="white"/>
</svg>
