<svg width="12" height="12" viewBox="0 0 12 12" fill="none" xmlns="http://www.w3.org/2000/svg">
<path d="M6 1.59961C8.43005 1.59961 10.4004 3.56995 10.4004 6C10.4004 8.43005 8.43005 10.4004 6 10.4004C3.56995 10.4004 1.59961 8.43005 1.59961 6C1.59961 3.56995 3.56995 1.59961 6 1.59961ZM6 2.40039C4.01178 2.40039 2.40039 4.01178 2.40039 6C2.40039 7.98822 4.01178 9.59961 6 9.59961C7.98822 9.59961 9.59961 7.98822 9.59961 6C9.59961 4.01178 7.98822 2.40039 6 2.40039ZM6 4.09961C6.22091 4.09961 6.40039 4.27909 6.40039 4.5V5.83398L7.2832 6.7168C7.43941 6.87301 7.43941 7.12699 7.2832 7.2832C7.12699 7.43941 6.87301 7.43941 6.7168 7.2832L5.7168 6.2832L5.66699 6.22168C5.62361 6.1565 5.59961 6.07946 5.59961 6V4.5C5.59961 4.27909 5.77909 4.09961 6 4.09961Z" fill="#A6ABB5"/>
</svg>
