<svg width="16" height="16" viewBox="0 0 16 16" fill="none" xmlns="http://www.w3.org/2000/svg">
<path d="M2.66666 1.33333C2.49157 1.33333 2.31818 1.36782 2.15642 1.43483C1.99465 1.50183 1.84766 1.60005 1.72385 1.72386C1.60004 1.84767 1.50183 1.99465 1.43482 2.15642C1.36782 2.31819 1.33333 2.49157 1.33333 2.66667V8C1.33333 8.1751 1.36782 8.34848 1.43482 8.51024C1.50183 8.67201 1.60004 8.819 1.72385 8.94281C1.84766 9.06662 1.99465 9.16483 2.15642 9.23184C2.31818 9.29884 2.49157 9.33333 2.66666 9.33333H3.99999L5.99999 14.6667H6.66666C7.37391 14.6667 8.05218 14.3857 8.55228 13.8856C9.05238 13.3855 9.33333 12.7072 9.33333 12V9.33333H12.9587C13.1613 9.3333 13.3612 9.2871 13.5433 9.19824C13.7253 9.10938 13.8848 8.98019 14.0094 8.82049C14.1341 8.66079 14.2208 8.47478 14.2628 8.27658C14.3048 8.07839 14.3011 7.87322 14.252 7.67667L13.172 3.35333C13.0277 2.77621 12.6946 2.26389 12.2257 1.89786C11.7567 1.53184 11.1789 1.33312 10.584 1.33333H2.66666ZM3.99999 8H2.66666V2.66667H3.99999V8ZM6.92399 13.3333L5.33333 9.09133V2.66667H10.5847C10.882 2.66671 11.1708 2.76613 11.4051 2.94914C11.6394 3.13214 11.8059 3.38821 11.878 3.67667L12.9587 8H7.99999V12.2573C7.99999 12.8187 7.56999 13.2793 7.02199 13.3287L6.92399 13.3333Z" fill="#9747FF"/>
</svg>
