<svg width="16" height="16" viewBox="0 0 16 16" fill="none" xmlns="http://www.w3.org/2000/svg">
<g clip-path="url(#clip0_308_11341)">
<path d="M8 15.25C12.0041 15.25 15.25 12.0041 15.25 8C15.25 3.99594 12.0041 0.75 8 0.75C3.99594 0.75 0.75 3.99594 0.75 8C0.75 12.0041 3.99594 15.25 8 15.25ZM8 13.75C4.82436 13.75 2.25 11.1756 2.25 8C2.25 4.82436 4.82436 2.25 8 2.25C11.1756 2.25 13.75 4.82436 13.75 8C13.75 11.1756 11.1756 13.75 8 13.75ZM8 9.25C8.41421 9.25 8.75 8.91421 8.75 8.5V5C8.75 4.58579 8.41421 4.25 8 4.25C7.58579 4.25 7.25 4.58579 7.25 5V8.5C7.25 8.91421 7.58579 9.25 8 9.25ZM8 12C8.55228 12 9 11.5523 9 11C9 10.4477 8.55228 10 8 10C7.44772 10 7 10.4477 7 11C7 11.5523 7.44772 12 8 12Z" fill="#C2090A"/>
</g>
<defs>
<clipPath id="clip0_308_11341">
<rect width="16" height="16" fill="white"/>
</clipPath>
</defs>
</svg>
