<svg width="12" height="12" viewBox="0 0 12 12" fill="none" xmlns="http://www.w3.org/2000/svg">
<path d="M6 1.5C8.48528 1.5 10.5 3.51472 10.5 6C10.5 8.48528 8.48528 10.5 6 10.5C3.51472 10.5 1.5 8.48528 1.5 6C1.5 3.51472 3.51472 1.5 6 1.5ZM6 7.5C5.58579 7.5 5.25 7.83579 5.25 8.25C5.25 8.66421 5.58579 9 6 9C6.41421 9 6.75 8.66421 6.75 8.25C6.75 7.83579 6.41421 7.5 6 7.5ZM6 3.1875C5.68934 3.1875 5.4375 3.43934 5.4375 3.75V6.375C5.4375 6.68566 5.68934 6.9375 6 6.9375C6.31066 6.9375 6.5625 6.68566 6.5625 6.375V3.75C6.5625 3.43934 6.31066 3.1875 6 3.1875Z" fill="#C2090A"/>
</svg>
