<svg width="12" height="12" viewBox="0 0 12 12" fill="none" xmlns="http://www.w3.org/2000/svg">
<path d="M6 1.5C8.48528 1.5 10.5 3.51472 10.5 6C10.5 8.48528 8.48528 10.5 6 10.5C3.51472 10.5 1.5 8.48528 1.5 6C1.5 3.51472 3.51472 1.5 6 1.5ZM6 7.5C5.44772 7.5 5 7.94772 5 8.5C5 9.05228 5.44772 9.5 6 9.5C6.55228 9.5 7 9.05228 7 8.5C7 7.94772 6.55228 7.5 6 7.5ZM6 2.5C5.44772 2.5 5 2.94772 5 3.5V6C5 6.55228 5.44772 7 6 7C6.55228 7 7 6.55228 7 6V3.5C7 2.94772 6.55228 2.5 6 2.5Z" fill="#C2090A"/>
</svg>
