<svg width="16" height="16" viewBox="0 0 16 16" fill="none" xmlns="http://www.w3.org/2000/svg">
<path d="M2.66666 14.6667C2.49157 14.6667 2.31818 14.6322 2.15642 14.5652C1.99465 14.4982 1.84766 14.4 1.72385 14.2761C1.60004 14.1523 1.50183 14.0053 1.43482 13.8436C1.36782 13.6818 1.33333 13.5084 1.33333 13.3333V8C1.33333 7.8249 1.36782 7.65152 1.43482 7.48975C1.50183 7.32799 1.60004 7.181 1.72385 7.05719C1.84766 6.93338 1.99465 6.83517 2.15642 6.76816C2.31818 6.70115 2.49157 6.66667 2.66666 6.66667H3.99999L5.99999 1.33333H6.66666C7.37391 1.33333 8.05218 1.61428 8.55228 2.11438C9.05238 2.61448 9.33333 3.29275 9.33333 4V6.66667H12.9587C13.1613 6.6667 13.3612 6.7129 13.5433 6.80176C13.7253 6.89062 13.8848 7.01981 14.0094 7.17951C14.1341 7.33921 14.2208 7.52522 14.2628 7.72342C14.3048 7.92161 14.3011 8.12678 14.252 8.32333L13.172 12.6467C13.0277 13.2238 12.6946 13.7361 12.2257 14.1021C11.7567 14.4682 11.1789 14.6669 10.584 14.6667H2.66666ZM3.99999 8H2.66666V13.3333H3.99999V8ZM6.92399 2.66667L5.33333 6.90867V13.3333H10.5847C10.882 13.3333 11.1708 13.2339 11.4051 13.0509C11.6394 12.8679 11.8059 12.6118 11.878 12.3233L12.9587 8H7.99999V3.74267C7.99999 3.18133 7.56999 2.72067 7.02199 2.67133L6.92399 2.66667Z" fill="#D9BBFF"/>
</svg>
