<svg width="16" height="16" viewBox="0 0 16 16" fill="none" xmlns="http://www.w3.org/2000/svg">
<path d="M8 1.42871C11.6289 1.42878 14.5712 4.37105 14.5713 8C14.5712 11.6289 11.6289 14.5712 8 14.5713C4.37105 14.5712 1.42878 11.6289 1.42871 8C1.42878 4.37105 4.37105 1.42878 8 1.42871ZM12.4863 5.42871C12.0488 5.61967 11.5403 6.00088 10.9658 6.55469C10.2723 7.22335 9.5769 8.04301 8.87207 8.84863C8.42202 9.36304 7.80063 9.70663 7.14551 9.75879C6.46712 9.81264 5.78508 9.54664 5.32422 8.91309C5.1084 8.61632 4.90478 8.29907 4.72949 8.0293C4.707 8.12517 4.68413 8.22887 4.65625 8.33984C4.53872 8.80762 4.37121 9.37926 4.08887 9.84277C3.94068 10.0859 3.73979 10.3287 3.47852 10.5088C4.34862 12.0737 6.00664 13.1378 7.91699 13.168C7.87664 13.1314 7.83691 13.0983 7.80176 13.0645C7.66198 12.9297 7.51397 12.769 7.4209 12.585C7.30708 12.3599 7.25308 12.0422 7.43457 11.7354C7.56209 11.5198 7.7651 11.4014 7.82227 11.3662C7.97351 11.2732 8.13213 11.1117 8.31543 10.8623C8.50878 10.5992 8.6588 10.3433 8.87695 10.0166C9.23444 9.48126 9.84055 8.63067 10.8975 8.67676C11.37 8.6975 11.7234 8.94449 12.0293 9.2334C12.2374 9.43003 12.4732 9.69912 12.7568 10.0293C13.023 9.4062 13.1709 8.72039 13.1709 8C13.1709 7.06381 12.9214 6.18616 12.4863 5.42871ZM10.8369 10.0762C10.6519 10.0681 10.4479 10.1862 10.042 10.7939C9.87843 11.0389 9.65719 11.3994 9.44336 11.6904C9.3104 11.8714 9.15469 12.0611 8.97168 12.2344C9.05511 12.3059 9.15516 12.3892 9.27539 12.4854C9.42216 12.6028 9.5073 12.7677 9.53027 12.9404C10.5058 12.6386 11.3571 12.0554 11.9912 11.2861C11.552 10.7705 11.2799 10.4527 11.0674 10.252C10.9594 10.1499 10.8945 10.1059 10.8594 10.0869L10.8369 10.0762ZM8 2.8291C5.14425 2.82917 2.82917 5.14425 2.8291 8C2.82911 8.35651 2.86488 8.70481 2.93359 9.04102C3.0778 8.77596 3.19471 8.41342 3.29883 7.99902C3.39721 7.60739 3.50331 7.07675 3.61133 6.75977C3.64198 6.66989 3.68183 6.56856 3.7334 6.47266C3.7809 6.38441 3.86519 6.24974 4.00684 6.14062C4.17241 6.0133 4.40735 5.9303 4.66992 5.9834C4.89564 6.02931 5.05266 6.15878 5.1416 6.24805C5.3932 6.50067 5.62236 6.8357 5.82324 7.1416C6.03835 7.46918 6.23384 7.78428 6.45605 8.08984C6.61397 8.3069 6.81341 8.38068 7.03418 8.36328C7.27826 8.34376 7.57579 8.20401 7.81836 7.92676C8.49816 7.14974 9.24577 6.26839 9.99414 5.54688C10.4918 5.06713 11.0376 4.61363 11.6123 4.30176C10.6802 3.39124 9.40596 2.82914 8 2.8291Z" fill="#1D2129"/>
</svg>
