<svg width="16" height="16" viewBox="0 0 16 16" fill="none" xmlns="http://www.w3.org/2000/svg">
<path d="M8 1.39999C8.50043 1.39999 8.91387 1.76776 8.9873 2.24765C11.1652 2.68741 12.8379 4.55473 12.959 6.85507L13.2119 11.65H14C14.4142 11.65 14.75 11.9858 14.75 12.4C14.75 12.8142 14.4142 13.15 14 13.15H9.93457C9.71235 14.0123 8.93171 14.65 8 14.65C7.06829 14.65 6.28765 14.0123 6.06543 13.15H2C1.58579 13.15 1.25 12.8142 1.25 12.4C1.25 11.9858 1.58579 11.65 2 11.65H2.78809L3.04102 6.85507C3.16207 4.55505 4.83425 2.68775 7.01172 2.24765C7.0851 1.76768 7.49952 1.39999 8 1.39999ZM8 3.64999C6.15654 3.64999 4.63595 5.09326 4.53906 6.93417L4.29102 11.65H11.709L11.4609 6.93417C11.364 5.09326 9.84346 3.65 8 3.64999Z" fill="#1D2129"/>
</svg>
