<svg width="16" height="16" viewBox="0 0 16 16" fill="none" xmlns="http://www.w3.org/2000/svg">
<path d="M4.56937 15.24C4.00053 15.24 3.51069 15.1073 3.09986 14.8418C2.69535 14.5764 2.38249 14.2161 2.16127 13.761C1.94638 13.3059 1.83893 12.794 1.83893 12.2251V4.01486C1.83893 3.4397 1.94638 2.92774 2.16127 2.47899C2.38249 2.02391 2.69535 1.66365 3.09986 1.39819C3.51069 1.13273 4.00053 1 4.56937 1C5.13821 1 5.62488 1.13273 6.02939 1.39819C6.44022 1.66365 6.75309 2.02391 6.96798 2.47899C7.1892 2.93406 7.29981 3.44602 7.29981 4.01486V12.2251C7.29981 12.794 7.1892 13.3059 6.96798 13.761C6.75309 14.2161 6.44022 14.5764 6.02939 14.8418C5.62488 15.1073 5.13821 15.24 4.56937 15.24ZM4.56937 13.2491C4.82219 13.2491 4.99916 13.1448 5.10029 12.9362C5.20141 12.7213 5.25198 12.4843 5.25198 12.2251V4.01486C5.25198 3.75572 5.19825 3.52186 5.09081 3.31329C4.98336 3.09839 4.80955 2.99095 4.56937 2.99095C4.33551 2.99095 4.1617 3.09839 4.04793 3.31329C3.94048 3.52186 3.88676 3.75572 3.88676 4.01486V12.2251C3.88676 12.4843 3.94048 12.7213 4.04793 12.9362C4.15538 13.1448 4.32919 13.2491 4.56937 13.2491Z" fill="#1D2129"/>
<path d="M8.28499 15.0883C7.99499 15.0883 7.77297 14.8302 7.81627 14.5435L9.77781 1.55494C9.81282 1.3231 10.0121 1.15169 10.2465 1.15169H11.9338C12.1683 1.15169 12.3675 1.3231 12.4025 1.55494L14.364 14.5435C14.4073 14.8302 14.1853 15.0883 13.8953 15.0883H12.8704C12.6328 15.0883 12.4319 14.9124 12.4005 14.6769L12.0762 12.2441H10.1042L9.77979 14.6769C9.74839 14.9124 9.5475 15.0883 9.30991 15.0883H8.28499ZM10.3886 10.0825H11.7917L11.2039 5.39904L11.147 4.65955H11.0333L10.9764 5.39904L10.3886 10.0825Z" fill="#1D2129"/>
</svg>
