<svg width="16" height="16" viewBox="0 0 16 16" fill="none" xmlns="http://www.w3.org/2000/svg">
<path d="M13.7047 3.83125C13.4766 3.26563 13.1422 2.76094 12.7094 2.32813C12.2766 1.89531 11.7719 1.56094 11.2063 1.33281C10.6609 1.1125 10.0859 1.00156 9.49532 1.00156C8.90469 1.00156 8.32813 1.1125 7.78438 1.33281C7.21875 1.56094 6.71407 1.89531 6.28125 2.32813L2.17188 6.4375C1.92813 6.68125 1.92813 7.07656 2.17188 7.32188C2.41563 7.56719 2.81094 7.56563 3.05625 7.32188L7.16563 3.2125C7.78438 2.59375 8.6125 2.25156 9.49532 2.25156C10.3781 2.25156 11.2063 2.59219 11.825 3.2125C12.4438 3.83125 12.7859 4.65938 12.7859 5.54219C12.7859 6.425 12.4453 7.25313 11.825 7.87188L9.24375 10.4531L9.23594 10.4609L6.51094 13.1859C5.75782 13.9391 4.53125 13.9391 3.77657 13.1859C3.02344 12.4328 3.02344 11.2063 3.77657 10.4516L6.50157 7.72656C6.50938 7.71875 6.51563 7.7125 6.52188 7.70469L8.42657 5.8C8.54375 5.68281 8.7 5.61875 8.86719 5.61875C9.03438 5.61875 9.19219 5.68281 9.30782 5.8C9.425 5.91719 9.48907 6.07344 9.48907 6.24063C9.48907 6.40781 9.425 6.56563 9.30782 6.68125L5.66719 10.325C5.42344 10.5688 5.42344 10.9641 5.66719 11.2094C5.78907 11.3313 5.94844 11.3922 6.10938 11.3922C6.27032 11.3922 6.42969 11.3313 6.55157 11.2094L10.1953 7.56563C10.5484 7.2125 10.7422 6.74219 10.7422 6.24063C10.7422 5.73906 10.5484 5.26875 10.1953 4.91563C9.84219 4.5625 9.37188 4.36875 8.87032 4.36875C8.36875 4.36875 7.89844 4.5625 7.54532 4.91563L4.86094 7.6C4.85313 7.60781 4.84688 7.61406 4.84063 7.62188L2.89375 9.56719C2.29375 10.1672 1.96407 10.9656 1.96407 11.8188C1.96407 12.6703 2.29375 13.4703 2.89375 14.0703C3.49375 14.6703 4.29219 15 5.14532 15C5.99688 15 6.79688 14.6703 7.39688 14.0703L8.17813 13.2891L8.18594 13.2813L12.7109 8.75625C13.1438 8.32344 13.4781 7.81875 13.7063 7.25313C13.9266 6.70781 14.0375 6.13281 14.0375 5.54219C14.0359 4.95156 13.925 4.375 13.7047 3.83125Z" fill="#A6ABB5" stroke="#A6ABB5" stroke-width="0.3"/>
</svg>
