<svg width="12" height="12" viewBox="0 0 12 12" fill="none" xmlns="http://www.w3.org/2000/svg">
<g clip-path="url(#clip0_352_9174)">
<rect width="12" height="12" rx="4" fill="#FFECEE"/>
<path d="M6 7.5C6.55228 7.5 7 7.05228 7 6.5V3C7 2.44772 6.55228 2 6 2C5.44772 2 5 2.44772 5 3V6.5C5 7.05228 5.44772 7.5 6 7.5ZM6 10.5C6.55228 10.5 7 10.0523 7 9.5C7 8.94772 6.55228 8.5 6 8.5C5.44772 8.5 5 8.94772 5 9.5C5 10.0523 5.44772 10.5 6 10.5Z" fill="#C2090A"/>
<path d="M9 7.5C9.55228 7.5 10 7.05228 10 6.5V3C10 2.44772 9.55228 2 9 2C8.44772 2 8 2.44772 8 3V6.5C8 7.05228 8.44772 7.5 9 7.5ZM9 10.5C9.55228 10.5 10 10.0523 10 9.5C10 8.94772 9.55228 8.5 9 8.5C8.44772 8.5 8 8.94772 8 9.5C8 10.0523 8.44772 10.5 9 10.5Z" fill="#C2090A"/>
<path d="M3 7.5C3.55228 7.5 4 7.05228 4 6.5V3C4 2.44772 3.55228 2 3 2C2.44772 2 2 2.44772 2 3V6.5C2 7.05228 2.44772 7.5 3 7.5ZM3 10.5C3.55228 10.5 4 10.0523 4 9.5C4 8.94772 3.55228 8.5 3 8.5C2.44772 8.5 2 8.94772 2 9.5C2 10.0523 2.44772 10.5 3 10.5Z" fill="#C2090A"/>
</g>
<defs>
<clipPath id="clip0_352_9174">
<rect width="12" height="12" fill="white"/>
</clipPath>
</defs>
</svg>
