<svg width="12" height="12" viewBox="0 0 12 12" fill="none" xmlns="http://www.w3.org/2000/svg">
<g clip-path="url(#clip0_352_9173)">
<rect width="12" height="12" rx="4" fill="#FF7D00"/>
<path d="M5.91732 10.93C5.46063 10.93 5.05118 10.8692 4.68898 10.7477C4.32677 10.6349 4.00394 10.4786 3.72047 10.279C3.44488 10.0706 3.20472 9.84058 3 9.58885L3.81496 8.37791C4.08268 8.64701 4.37402 8.88138 4.68898 9.08103C5.01181 9.27201 5.37008 9.36749 5.76378 9.36749C6.06299 9.36749 6.32283 9.31541 6.54331 9.21124C6.77165 9.10708 6.94488 8.95517 7.06299 8.75551C7.18898 8.55586 7.25197 8.3128 7.25197 8.02635C7.25197 7.70517 7.1811 7.43173 7.03937 7.20603C6.90551 6.97166 6.66535 6.79371 6.3189 6.67218C5.97244 6.55065 5.48425 6.48989 4.85433 6.48989V5.10968C5.38976 5.10968 5.81102 5.04892 6.11811 4.92739C6.4252 4.79718 6.64173 4.62357 6.76772 4.40655C6.90157 4.18086 6.9685 3.92478 6.9685 3.63833C6.9685 3.26506 6.86614 2.97426 6.66142 2.76593C6.45669 2.54892 6.16929 2.44041 5.79921 2.44041C5.49213 2.44041 5.20472 2.51853 4.93701 2.67478C4.67717 2.82235 4.41732 3.02635 4.15748 3.28676L3.25984 2.10187C3.64567 1.74596 4.05118 1.46385 4.47638 1.25551C4.90157 1.0385 5.37008 0.929993 5.88189 0.929993C6.44094 0.929993 6.93307 1.02982 7.35827 1.22947C7.79134 1.42912 8.12598 1.71992 8.36221 2.10187C8.59843 2.48381 8.71654 2.94822 8.71654 3.4951C8.71654 4.01593 8.59055 4.46298 8.33858 4.83624C8.08661 5.20951 7.72835 5.49596 7.26378 5.69562V5.76072C7.58661 5.85621 7.87795 6.01246 8.1378 6.22947C8.40551 6.43781 8.61417 6.70256 8.76378 7.02374C8.92126 7.34492 9 7.71819 9 8.14353C9 8.72513 8.85827 9.22426 8.5748 9.64093C8.29921 10.0576 7.9252 10.3788 7.45276 10.6045C6.98819 10.8215 6.47638 10.93 5.91732 10.93Z" fill="white"/>
</g>
<defs>
<clipPath id="clip0_352_9173">
<rect width="12" height="12" fill="white"/>
</clipPath>
</defs>
</svg>
