<svg width="12" height="12" viewBox="0 0 12 12" fill="none" xmlns="http://www.w3.org/2000/svg">
<g clip-path="url(#clip0_352_9170)">
<rect width="12" height="12" rx="4" fill="#FF7D00"/>
<path d="M5.98524 11C5.25707 11 4.54367 10.8785 3.84502 10.6354C3.14637 10.3924 2.53137 10.0451 2 9.59375L3.25461 8.26563C3.63838 8.58681 4.07626 8.84722 4.56827 9.04687C5.07011 9.23785 5.5572 9.33333 6.02952 9.33333C6.60025 9.33333 7.03321 9.23351 7.32841 9.03385C7.62362 8.8342 7.77122 8.5651 7.77122 8.22656C7.77122 7.98351 7.69742 7.79253 7.54982 7.65365C7.41205 7.50608 7.22017 7.37587 6.97417 7.26302C6.72817 7.15017 6.4428 7.03733 6.11808 6.92448L4.67159 6.36458C4.3075 6.23437 3.95326 6.06076 3.60886 5.84375C3.27429 5.61806 2.99385 5.33594 2.76753 4.9974C2.55105 4.65885 2.4428 4.25521 2.4428 3.78646C2.4428 3.25694 2.60517 2.78385 2.92989 2.36719C3.25461 1.95052 3.70234 1.62066 4.27306 1.3776C4.84379 1.12587 5.49324 1 6.2214 1C6.87085 1 7.4957 1.10851 8.09594 1.32552C8.69619 1.54253 9.21771 1.85069 9.66052 2.25L8.55351 3.44792C8.2091 3.19618 7.84994 3.00087 7.47602 2.86198C7.10209 2.72309 6.68389 2.65365 6.2214 2.65365C5.74908 2.65365 5.37023 2.74479 5.08487 2.92708C4.80935 3.10069 4.67159 3.34809 4.67159 3.66927C4.67159 3.89497 4.75031 4.0816 4.90775 4.22917C5.06519 4.37674 5.27183 4.50694 5.52768 4.61979C5.78352 4.72396 6.06396 4.83247 6.369 4.94531L7.80074 5.45312C8.24354 5.60937 8.62731 5.80469 8.95203 6.03906C9.28659 6.27344 9.54244 6.55556 9.71956 6.88542C9.90652 7.21528 10 7.61458 10 8.08333C10 8.60417 9.83764 9.08594 9.51291 9.52865C9.19803 9.97135 8.74047 10.3273 8.14022 10.5964C7.54982 10.8655 6.83149 11 5.98524 11Z" fill="white"/>
</g>
<defs>
<clipPath id="clip0_352_9170">
<rect width="12" height="12" fill="white"/>
</clipPath>
</defs>
</svg>
