<svg width="12" height="12" viewBox="0 0 12 12" fill="none" xmlns="http://www.w3.org/2000/svg">
<g clip-path="url(#clip0_352_9172)">
<rect width="12" height="12" rx="4" fill="#FF7D00"/>
<path d="M2.61111 11V9.87268C3.5463 9.07692 4.34259 8.33864 5 7.65782C5.66667 6.97701 6.17593 6.34483 6.52778 5.76127C6.87963 5.16888 7.05556 4.62069 7.05556 4.11671C7.05556 3.79841 6.99537 3.51989 6.875 3.28117C6.75463 3.04244 6.5787 2.86118 6.34722 2.7374C6.125 2.60477 5.84722 2.53846 5.51389 2.53846C5.14352 2.53846 4.80093 2.64014 4.48611 2.8435C4.18056 3.03802 3.89815 3.27232 3.63889 3.54642L2.5 2.49867C2.98148 2.00354 3.47222 1.63218 3.97222 1.38462C4.48148 1.12821 5.08333 1 5.77778 1C6.42593 1 6.99074 1.12821 7.47222 1.38462C7.96296 1.63218 8.34259 1.98143 8.61111 2.43236C8.87963 2.88329 9.01389 3.41379 9.01389 4.02387C9.01389 4.61627 8.85648 5.22193 8.54167 5.84085C8.23611 6.45093 7.82407 7.06101 7.30556 7.67109C6.78704 8.28117 6.21296 8.88241 5.58333 9.4748C5.85185 9.43943 6.13889 9.41291 6.44444 9.39523C6.75926 9.3687 7.03704 9.35544 7.27778 9.35544H9.5V11H2.61111Z" fill="white"/>
</g>
<defs>
<clipPath id="clip0_352_9172">
<rect width="12" height="12" fill="white"/>
</clipPath>
</defs>
</svg>
