<svg width="12" height="12" viewBox="0 0 12 12" fill="none" xmlns="http://www.w3.org/2000/svg">
<g clip-path="url(#clip0_364_9673)">
<rect width="12" height="12" rx="4" fill="#9747FF"/>
<path d="M5.48591 1.85423C5.71911 1.46674 6.28089 1.46674 6.51409 1.85423L7.51473 3.51696C7.5985 3.65617 7.73515 3.75545 7.89344 3.79211L9.784 4.22996C10.2246 4.332 10.3982 4.86629 10.1017 5.20781L8.82959 6.67329C8.72308 6.79598 8.67089 6.95662 8.68494 7.11849L8.85272 9.05182C8.89183 9.50238 8.43734 9.83259 8.02092 9.65617L6.23405 8.89916C6.08445 8.83578 5.91555 8.83578 5.76595 8.89916L3.97908 9.65617C3.56266 9.83259 3.10817 9.50238 3.14728 9.05182L3.31506 7.11849C3.32911 6.95662 3.27692 6.79598 3.17041 6.67329L1.89828 5.20781C1.60182 4.86629 1.77541 4.332 2.216 4.22996L4.10656 3.79211C4.26485 3.75545 4.4015 3.65617 4.48527 3.51696L5.48591 1.85423Z" fill="white"/>
</g>
<defs>
<clipPath id="clip0_364_9673">
<rect width="12" height="12" fill="white"/>
</clipPath>
</defs>
</svg>
