<svg width="16" height="16" viewBox="0 0 16 16" fill="none" xmlns="http://www.w3.org/2000/svg">
<path d="M14 7.94973H14.75V7.94969L14 7.94973ZM3.22949 14.3814L3.42361 15.1058L3.42382 15.1058L3.22949 14.3814ZM2 7.94973L1.25 7.94969V7.94973H2ZM2.50326 10.3573L1.81645 10.6586L2.50326 10.3573ZM5.75576 13.7037L5.95009 14.4281L5.75576 13.7037ZM8 1.94973V2.69973C10.8994 2.69973 13.2498 5.05035 13.25 7.94977L14 7.94973L14.75 7.94969C14.7498 4.22198 11.7279 1.19973 8 1.19973V1.94973ZM14 7.94973H13.25C13.25 10.8492 10.8995 13.1997 8 13.1997V13.9497V14.6997C11.7279 14.6997 14.75 11.6776 14.75 7.94973H14ZM8 13.9497V13.1997C7.49622 13.1997 7.00994 13.1281 6.54937 12.9956L6.34206 13.7164L6.13475 14.4372C6.72738 14.6076 7.35314 14.6997 8 14.6997V13.9497ZM5.75576 13.7037L5.56144 12.9793L3.03517 13.657L3.22949 14.3814L3.42382 15.1058L5.95009 14.4281L5.75576 13.7037ZM3.22949 14.3814L3.03538 13.6569C3.19431 13.6143 3.34961 13.7337 3.34961 13.898H2.59961H1.84961C1.84961 14.7197 2.62955 15.3186 3.42361 15.1058L3.22949 14.3814ZM2.59961 13.898H3.34961V10.7958H2.59961H1.84961V13.898H2.59961ZM2.50326 10.3573L3.19007 10.056C2.90751 9.41192 2.75 8.69999 2.75 7.94973H2H1.25C1.25 8.912 1.45239 9.82878 1.81645 10.6586L2.50326 10.3573ZM2 7.94973L2.75 7.94977C2.75015 5.05035 5.10065 2.69973 8 2.69973V1.94973V1.19973C4.27215 1.19973 1.25019 4.22198 1.25 7.94969L2 7.94973ZM2.59961 10.7958H3.34961C3.34961 10.5267 3.28644 10.2756 3.19007 10.056L2.50326 10.3573L1.81645 10.6586C1.84161 10.716 1.84961 10.7624 1.84961 10.7958H2.59961ZM6.34206 13.7164L6.54937 12.9956C6.24641 12.9085 5.9037 12.8875 5.56144 12.9793L5.75576 13.7037L5.95009 14.4281C5.99241 14.4167 6.05504 14.4142 6.13475 14.4372L6.34206 13.7164Z" fill="#1D2129"/>
<path d="M8 5.5L6.5 8H9L7.5 10.5" stroke="#1D2129" stroke-width="1.5" stroke-linecap="round" stroke-linejoin="round"/>
</svg>
