<svg width="16" height="16" viewBox="0 0 16 16" fill="none" xmlns="http://www.w3.org/2000/svg">
<g clip-path="url(#clip0_118_2686)">
<circle cx="8" cy="8" r="2.5" stroke="#A6ABB5" stroke-width="1.5" stroke-linecap="round" stroke-linejoin="round"/>
<path d="M6.64538 1.7865C7.32565 0.889353 8.67435 0.889352 9.35462 1.7865L9.54212 2.03379C9.9133 2.5233 10.5197 2.77448 11.1283 2.69081L11.4357 2.64853C12.5511 2.49517 13.5048 3.44885 13.3515 4.56425L13.3092 4.8717C13.2255 5.4803 13.4767 6.0867 13.9662 6.45788L14.2135 6.64538C15.1106 7.32565 15.1106 8.67435 14.2135 9.35462L13.9662 9.54212C13.4767 9.9133 13.2255 10.5197 13.3092 11.1283L13.3515 11.4357C13.5048 12.5511 12.5511 13.5048 11.4357 13.3515L11.1283 13.3092C10.5197 13.2255 9.9133 13.4767 9.54212 13.9662L9.35462 14.2135C8.67435 15.1106 7.32565 15.1106 6.64538 14.2135L6.45788 13.9662C6.0867 13.4767 5.4803 13.2255 4.8717 13.3092L4.56425 13.3515C3.44885 13.5048 2.49517 12.5511 2.64853 11.4358L2.69081 11.1283C2.77448 10.5197 2.52331 9.9133 2.03379 9.54212L1.7865 9.35462C0.889353 8.67435 0.889352 7.32565 1.7865 6.64538L2.03379 6.45788C2.5233 6.0867 2.77448 5.4803 2.69081 4.8717L2.64853 4.56425C2.49517 3.44885 3.44885 2.49517 4.56425 2.64853L4.8717 2.69081C5.4803 2.77448 6.0867 2.52331 6.45788 2.03379L6.64538 1.7865Z" stroke="#A6ABB5" stroke-width="1.5" stroke-linecap="round" stroke-linejoin="round"/>
</g>
<defs>
<clipPath id="clip0_118_2686">
<rect width="16" height="16" fill="white"/>
</clipPath>
</defs>
</svg>
