<svg width="16" height="16" viewBox="0 0 16 16" fill="none" xmlns="http://www.w3.org/2000/svg">
<path d="M10.5303 4.46967C10.2374 4.17678 9.76262 4.17678 9.46973 4.46967C9.17686 4.76257 9.17684 5.23733 9.46973 5.53022L11.1895 7.24994H3C2.58579 7.24994 2.25 7.58573 2.25 7.99994C2.25003 8.41413 2.58581 8.74994 3 8.74994H11.1895L9.46973 10.4697C9.17686 10.7626 9.17684 11.2373 9.46973 11.5302C9.76261 11.8231 10.2374 11.8231 10.5303 11.5302L13.5303 8.53022C13.5623 8.4982 13.5902 8.46356 13.6152 8.42768C13.646 8.38357 13.6726 8.33639 13.6934 8.28608C13.7141 8.23579 13.7289 8.18369 13.7383 8.1308C13.7458 8.08829 13.75 8.0446 13.75 7.99994C13.75 7.95464 13.746 7.91022 13.7383 7.86713C13.7292 7.8163 13.7149 7.76615 13.6953 7.71772L13.6914 7.70795C13.6798 7.68056 13.664 7.65544 13.6494 7.62983C13.617 7.57298 13.5788 7.51819 13.5303 7.46967L10.5303 4.46967Z" fill="#1D2129"/>
</svg>
