<svg width="16" height="16" viewBox="0 0 16 16" fill="none" xmlns="http://www.w3.org/2000/svg">
<path d="M11.4998 1.75019C12.4663 1.75019 13.2498 2.53369 13.2498 3.50019V12.6193C13.2497 13.8151 12.0769 14.6587 10.9432 14.2785L8.0789 13.3176C8.02763 13.3005 7.97196 13.3005 7.9207 13.3176L5.05644 14.2785C3.92281 14.6585 2.74994 13.815 2.7498 12.6193V3.50019C2.7498 2.53376 3.5334 1.7503 4.4998 1.75019H11.4998ZM4.4998 3.25019C4.36182 3.2503 4.2498 3.36218 4.2498 3.50019V12.6193C4.24994 12.7898 4.41722 12.9104 4.5789 12.8566L7.44316 11.8957C7.80421 11.7746 8.19538 11.7746 8.55644 11.8957L11.4207 12.8566C11.5825 12.9106 11.7497 12.7899 11.7498 12.6193V3.50019C11.7498 3.36212 11.6379 3.25019 11.4998 3.25019H4.4998ZM7.69121 5.01288C7.83113 4.78039 8.16848 4.78039 8.3084 5.01288L8.90898 6.00995C8.95925 6.09348 9.04155 6.153 9.13652 6.17499L10.2703 6.43769C10.5347 6.49891 10.6386 6.81969 10.4607 7.0246L9.69804 7.90351C9.63414 7.97712 9.6027 8.07397 9.61113 8.17109L9.71172 9.33124C9.73506 9.60147 9.46248 9.79932 9.21269 9.69355L8.14043 9.23944C8.05067 9.20143 7.94893 9.20142 7.85918 9.23944L6.78789 9.69355C6.53809 9.79937 6.26457 9.60148 6.28789 9.33124L6.38945 8.17109C6.39787 8.07398 6.36643 7.97711 6.30254 7.90351L5.53886 7.0246C5.36116 6.81974 5.46515 6.49903 5.72929 6.43769L6.86406 6.17499C6.95895 6.15296 7.04136 6.09343 7.0916 6.00995L7.69121 5.01288Z" fill="#A6ABB5"/>
</svg>
