<svg width="12" height="12" viewBox="0 0 12 12" fill="none" xmlns="http://www.w3.org/2000/svg">
<g clip-path="url(#clip0_500_18964)">
<path d="M9.37334 11.2428C9.70127 11.2428 10.0096 11.1152 10.2413 10.8835L10.7965 10.3283C11.0282 10.0966 11.1558 9.78828 11.1558 9.46035C11.1558 9.13242 11.0282 8.82413 10.7965 8.59242L8.44405 6.23998C8.98994 4.80259 8.66054 3.15215 7.58053 2.04465C6.39007 0.823755 4.55701 0.496808 3.01899 1.23121C2.95517 1.26163 2.89961 1.30694 2.85698 1.36333C2.81434 1.41971 2.78589 1.48553 2.77402 1.55521C2.74997 1.69659 2.79562 1.84092 2.89724 1.94254L4.69839 3.74369C4.98558 4.03088 4.98558 4.49773 4.69839 4.78492C4.55947 4.92384 4.37439 5.00043 4.17754 5.00043C3.98068 5.00043 3.7961 4.92384 3.65668 4.78492L1.85553 2.98376C1.75391 2.88214 1.60958 2.83649 1.4682 2.86054C1.32682 2.8846 1.20605 2.9764 1.1442 3.10551C0.419614 4.62292 0.731343 6.44174 1.92082 7.63122C3.03519 8.74559 4.70134 9.08971 6.15493 8.53302L8.50492 10.883C8.73663 11.1147 9.04492 11.2424 9.37285 11.2424L9.37334 11.2428ZM4.73178 1.72654C5.54816 1.72654 6.35178 2.04956 6.94775 2.66123C7.84464 3.58071 8.07488 4.98373 7.52113 6.1521C7.48209 6.23448 7.46948 6.32691 7.48504 6.41673C7.50059 6.50656 7.54355 6.58937 7.60802 6.65381L10.1716 9.21735C10.2364 9.28215 10.2722 9.36855 10.2722 9.46035C10.2722 9.55215 10.2364 9.63855 10.1716 9.70335L9.61634 10.2586C9.55154 10.3234 9.46514 10.3592 9.37334 10.3592C9.28154 10.3592 9.19514 10.3234 9.13034 10.2586L6.56877 7.697C6.43622 7.56445 6.23495 7.53009 6.06607 7.6106C4.88592 8.17417 3.47112 7.93165 2.54624 7.00629C1.77747 6.23752 1.47998 5.1315 1.72495 4.10206L3.03224 5.40935C3.66405 6.04116 4.69152 6.04116 5.32332 5.40935C5.95513 4.77755 5.95513 3.75008 5.32332 3.11827L4.01554 1.81049C4.25033 1.75442 4.49088 1.72609 4.73227 1.72605L4.73178 1.72654Z" fill="#A6ABB5" stroke="#A6ABB5" stroke-width="0.4"/>
</g>
<defs>
<clipPath id="clip0_500_18964">
<rect width="12" height="12" fill="white"/>
</clipPath>
</defs>
</svg>
