<svg width="16" height="16" viewBox="0 0 16 16" fill="none" xmlns="http://www.w3.org/2000/svg">
<path d="M4.64123 4.64124C4.93412 4.34835 5.40899 4.34835 5.70189 4.64124L8.00344 6.94279L10.3057 4.64746C10.5989 4.35501 11.0738 4.35574 11.3663 4.64884C11.6589 4.9421 11.6582 5.41697 11.365 5.7095L9.0641 8.00345L11.3587 10.2981C11.6516 10.591 11.6516 11.0659 11.3587 11.3588C11.0658 11.6517 10.591 11.6517 10.2981 11.3588L8.00275 9.06342L5.7012 11.3594C5.40794 11.6519 4.93305 11.6513 4.64054 11.3581C4.34811 11.0648 4.3487 10.5899 4.64192 10.2974L6.94209 8.00276L4.64123 5.7019C4.34833 5.40901 4.34834 4.93414 4.64123 4.64124Z" fill="#A6ABB5"/>
</svg>
