<svg width="12" height="12" viewBox="0 0 12 12" fill="none" xmlns="http://www.w3.org/2000/svg">
<path d="M3.34858 3.34967C3.64147 3.05678 4.11634 3.05678 4.40924 3.34967L6.00299 4.94343L7.59674 3.35382C7.88992 3.0614 8.36486 3.06219 8.6574 3.3552C8.94992 3.64846 8.94927 4.12333 8.65602 4.41586L7.06365 6.00409L8.65188 7.59232C8.94456 7.88523 8.9447 8.36015 8.65188 8.65298C8.35905 8.9458 7.88413 8.94566 7.59122 8.65298L6.00161 7.06337L4.40855 8.65367C4.11535 8.94609 3.64042 8.94534 3.34789 8.65229C3.05542 8.35902 3.05603 7.88413 3.34927 7.59162L4.94095 6.00271L3.34858 4.41033C3.05568 4.11744 3.05568 3.64257 3.34858 3.34967Z" fill="#A6ABB5"/>
</svg>
