<svg width="12" height="12" viewBox="0 0 12 12" fill="none" xmlns="http://www.w3.org/2000/svg">
<path d="M9.50049 2.09912C9.52664 2.09915 9.55287 2.10182 9.57861 2.10693C9.58702 2.10861 9.59482 2.11255 9.60303 2.11475C9.61983 2.11921 9.63662 2.12369 9.65283 2.13037C9.66678 2.13615 9.67977 2.14362 9.69287 2.15088C9.72498 2.16861 9.75648 2.19007 9.78369 2.21729C9.80807 2.24175 9.82652 2.26985 9.84326 2.29834C9.85265 2.31427 9.86248 2.32993 9.86963 2.34717C9.88984 2.3962 9.90094 2.44824 9.90088 2.50049V5.00049C9.90061 5.22102 9.72102 5.40062 9.50049 5.40088C9.27974 5.40088 9.10036 5.22118 9.1001 5.00049V3.46631L6.88428 5.68213C7.20759 6.12146 7.40088 6.6633 7.40088 7.25049C7.40062 8.71366 6.21366 9.90061 4.75049 9.90088C3.2871 9.90088 2.10036 8.71382 2.1001 7.25049C2.1001 5.78693 3.28693 4.6001 4.75049 4.6001C5.33749 4.6002 5.87866 4.7925 6.31787 5.11572L8.53369 2.8999L7.00049 2.90088C6.77974 2.90088 6.60036 2.72118 6.6001 2.50049C6.6001 2.27957 6.77957 2.1001 7.00049 2.1001L9.50049 2.09912ZM4.75049 5.40088C3.72876 5.40088 2.90088 6.22876 2.90088 7.25049C2.90114 8.27199 3.72892 9.1001 4.75049 9.1001C5.77183 9.09983 6.59983 8.27183 6.6001 7.25049C6.6001 6.22892 5.77199 5.40114 4.75049 5.40088Z" fill="#1677FF"/>
</svg>
